HIERARCHY
ROOT Hips
{
	OFFSET 0.053599 88.859886 3.107447
	CHANNELS 6 Xposition Yposition Zposition Zrotation Yrotation Xrotation 
	JOINT Spine
	{
		OFFSET -0.000000 8.814246 -2.080107
		CHANNELS 3 Zrotation Yrotation Xrotation
		JOINT Spine1
		{
			OFFSET 0.000000 8.844141 0.000000
			CHANNELS 3 Zrotation Yrotation Xrotation
			JOINT Spine2
			{
				OFFSET -0.000000 11.682268 0.000000
				CHANNELS 3 Zrotation Yrotation Xrotation
				JOINT Spine3
				{
					OFFSET 0.000000 11.746700 0.000000
					CHANNELS 3 Zrotation Yrotation Xrotation
					JOINT Neck
					{
						OFFSET -0.000000 17.658264 -0.000000
						CHANNELS 3 Zrotation Yrotation Xrotation
						JOINT Neck1
						{
							OFFSET -0.000000 5.101515 -0.000000
							CHANNELS 3 Zrotation Yrotation Xrotation
							JOINT Head
							{
								OFFSET 0.000000 5.101515 0.000000
								CHANNELS 3 Zrotation Yrotation Xrotation
								JOINT HeadEnd
								{
									OFFSET 0.000000 11.655085 0.000000
									CHANNELS 3 Zrotation Yrotation Xrotation
									End Site
									{
										OFFSET 0.000000 0.000000 0.000000
									}
								}
							}
						}
					}
					JOINT RightShoulder
					{
						OFFSET -2.625389 11.175210 0.000000
						CHANNELS 3 Zrotation Yrotation Xrotation
						JOINT RightArm
						{
							OFFSET -0.000000 10.434715 -0.000000
							CHANNELS 3 Zrotation Yrotation Xrotation
							JOINT RightForeArm
							{
								OFFSET -0.000000 29.628420 0.000000
								CHANNELS 3 Zrotation Yrotation Xrotation
								JOINT RightHand
								{
									OFFSET -0.000000 22.857611 0.000000
									CHANNELS 3 Zrotation Yrotation Xrotation
									JOINT RightHandThumb1
									{
										OFFSET -2.867323 3.959563 2.944291
										CHANNELS 3 Zrotation Yrotation Xrotation
										JOINT RightHandThumb2
										{
											OFFSET 0.000000 3.350399 0.000000
											CHANNELS 3 Zrotation Yrotation Xrotation
											JOINT RightHandThumb3
											{
												OFFSET 0.000000 3.756509 -0.000000
												CHANNELS 3 Zrotation Yrotation Xrotation
												JOINT RightHandThumb4
												{
													OFFSET 0.000000 3.147345 0.000000
													CHANNELS 3 Zrotation Yrotation Xrotation
													End Site
													{
														OFFSET 0.000000 0.000000 0.000000
													}
												}
											}
										}
									}
									JOINT RightHandIndex1
									{
										OFFSET -0.086752 10.030893 2.345280
										CHANNELS 3 Zrotation Yrotation Xrotation
										JOINT RightHandIndex2
										{
											OFFSET -0.000000 4.061090 0.000000
											CHANNELS 3 Zrotation Yrotation Xrotation
											JOINT RightHandIndex3
											{
												OFFSET -0.000000 3.248873 0.000000
												CHANNELS 3 Zrotation Yrotation Xrotation
												JOINT RightHandIndex4
												{
													OFFSET 0.000000 2.639709 -0.000000
													CHANNELS 3 Zrotation Yrotation Xrotation
													End Site
													{
														OFFSET 0.000000 0.000000 0.000000
													}
												}
											}
										}
									}
									JOINT RightHandMiddle1
									{
										OFFSET 0.104102 9.502952 0.006768
										CHANNELS 3 Zrotation Yrotation Xrotation
										JOINT RightHandMiddle2
										{
											OFFSET 0.000000 4.568727 0.000000
											CHANNELS 3 Zrotation Yrotation Xrotation
											JOINT RightHandMiddle3
											{
												OFFSET 0.000000 3.654981 -0.000000
												CHANNELS 3 Zrotation Yrotation Xrotation
												JOINT RightHandMiddle4
												{
													OFFSET -0.000000 2.741236 -0.000000
													CHANNELS 3 Zrotation Yrotation Xrotation
													End Site
													{
														OFFSET 0.000000 0.000000 0.000000
													}
												}
											}
										}
									}
									JOINT RightHandRing1
									{
										OFFSET 0.086752 8.921708 -2.267442
										CHANNELS 3 Zrotation Yrotation Xrotation
										JOINT RightHandRing2
										{
											OFFSET -0.000000 4.061090 0.000000
											CHANNELS 3 Zrotation Yrotation Xrotation
											JOINT RightHandRing3
											{
												OFFSET 0.000000 3.654981 -0.000000
												CHANNELS 3 Zrotation Yrotation Xrotation
												JOINT RightHandRing4
												{
													OFFSET 0.000000 2.741236 -0.000000
													CHANNELS 3 Zrotation Yrotation Xrotation
													End Site
													{
														OFFSET 0.000000 0.000000 0.000000
													}
												}
											}
										}
									}
									JOINT RightHandPinky1
									{
										OFFSET -0.173504 7.976997 -4.467199
										CHANNELS 3 Zrotation Yrotation Xrotation
										JOINT RightHandPinky2
										{
											OFFSET 0.000000 3.350399 -0.000000
											CHANNELS 3 Zrotation Yrotation Xrotation
											JOINT RightHandPinky3
											{
												OFFSET -0.000000 2.842763 0.000000
												CHANNELS 3 Zrotation Yrotation Xrotation
												JOINT RightHandPinky4
												{
													OFFSET -0.000000 2.639709 0.000000
													CHANNELS 3 Zrotation Yrotation Xrotation
													End Site
													{
														OFFSET 0.000000 0.000000 0.000000
													}
												}
											}
										}
									}
									JOINT RightForeArmEnd
									{
										OFFSET 0.000000 0.000000 0.000000
										CHANNELS 3 Zrotation Yrotation Xrotation
										End Site
										{
											OFFSET 0.000000 0.000000 0.000000
										}
									}
								}
								JOINT RightArmEnd
								{
									OFFSET 0.000000 0.000000 0.000000
									CHANNELS 3 Zrotation Yrotation Xrotation
									End Site
									{
										OFFSET 0.000000 0.000000 0.000000
									}
								}
							}
						}
					}
					JOINT LeftShoulder
					{
						OFFSET 2.625389 11.175210 0.000000
						CHANNELS 3 Zrotation Yrotation Xrotation
						JOINT LeftArm
						{
							OFFSET 0.000000 10.813635 -0.000000
							CHANNELS 3 Zrotation Yrotation Xrotation
							JOINT LeftForeArm
							{
								OFFSET 0.000000 28.724781 0.000000
								CHANNELS 3 Zrotation Yrotation Xrotation
								JOINT LeftHand
								{
									OFFSET 0.644384 25.716167 -0.328871
									CHANNELS 3 Zrotation Yrotation Xrotation
									JOINT LeftHandThumb1
									{
										OFFSET 2.867323 3.959563 2.944291
										CHANNELS 3 Zrotation Yrotation Xrotation
										JOINT LeftHandThumb2
										{
											OFFSET 0.000000 3.350399 0.000000
											CHANNELS 3 Zrotation Yrotation Xrotation
											JOINT LeftHandThumb3
											{
												OFFSET -0.000000 3.756509 0.000000
												CHANNELS 3 Zrotation Yrotation Xrotation
												JOINT LeftHandThumb4
												{
													OFFSET -0.000000 3.100000 0.000000
													CHANNELS 3 Zrotation Yrotation Xrotation
													End Site
													{
														OFFSET 0.000000 0.000000 0.000000
													}
												}
											}
										}
									}
									JOINT LeftHandIndex1
									{
										OFFSET 0.086752 10.030893 2.345280
										CHANNELS 3 Zrotation Yrotation Xrotation
										JOINT LeftHandIndex2
										{
											OFFSET -0.000000 4.061090 -0.000000
											CHANNELS 3 Zrotation Yrotation Xrotation
											JOINT LeftHandIndex3
											{
												OFFSET 0.000000 3.248873 -0.000000
												CHANNELS 3 Zrotation Yrotation Xrotation
												JOINT LeftHandIndex4
												{
													OFFSET 0.000000 2.639709 -0.000000
													CHANNELS 3 Zrotation Yrotation Xrotation
													End Site
													{
														OFFSET 0.000000 0.000000 0.000000
													}
												}
											}
										}
									}
									JOINT LeftHandMiddle1
									{
										OFFSET -0.104102 9.502952 0.006768
										CHANNELS 3 Zrotation Yrotation Xrotation
										JOINT LeftHandMiddle2
										{
											OFFSET -0.000000 4.568727 -0.000000
											CHANNELS 3 Zrotation Yrotation Xrotation
											JOINT LeftHandMiddle3
											{
												OFFSET 0.000000 3.654981 0.000000
												CHANNELS 3 Zrotation Yrotation Xrotation
												JOINT LeftHandMiddle4
												{
													OFFSET 0.000000 2.741236 -0.000000
													CHANNELS 3 Zrotation Yrotation Xrotation
													End Site
													{
														OFFSET 0.000000 0.000000 0.000000
													}
												}
											}
										}
									}
									JOINT LeftHandRing1
									{
										OFFSET -0.086752 8.921708 -2.267442
										CHANNELS 3 Zrotation Yrotation Xrotation
										JOINT LeftHandRing2
										{
											OFFSET 0.000000 4.061090 0.000000
											CHANNELS 3 Zrotation Yrotation Xrotation
											JOINT LeftHandRing3
											{
												OFFSET 0.000000 3.654981 0.000000
												CHANNELS 3 Zrotation Yrotation Xrotation
												JOINT LeftHandRing4
												{
													OFFSET 0.000000 2.741236 0.000000
													CHANNELS 3 Zrotation Yrotation Xrotation
													End Site
													{
														OFFSET 0.000000 0.000000 0.000000
													}
												}
											}
										}
									}
									JOINT LeftHandPinky1
									{
										OFFSET 0.173504 7.976997 -4.467199
										CHANNELS 3 Zrotation Yrotation Xrotation
										JOINT LeftHandPinky2
										{
											OFFSET -0.000000 3.350399 -0.000000
											CHANNELS 3 Zrotation Yrotation Xrotation
											JOINT LeftHandPinky3
											{
												OFFSET 0.000000 2.842763 0.000000
												CHANNELS 3 Zrotation Yrotation Xrotation
												JOINT LeftHandPinky4
												{
													OFFSET -0.000000 2.639709 -0.000000
													CHANNELS 3 Zrotation Yrotation Xrotation
													End Site
													{
														OFFSET 0.000000 0.000000 0.000000
													}
												}
											}
										}
									}
									JOINT LeftForeArmEnd
									{
										OFFSET 0.000000 0.000000 0.000000
										CHANNELS 3 Zrotation Yrotation Xrotation
										End Site
										{
											OFFSET 0.000000 0.000000 0.000000
										}
									}
								}
								JOINT LeftArmEnd
								{
									OFFSET 0.000000 0.000000 0.000000
									CHANNELS 3 Zrotation Yrotation Xrotation
									End Site
									{
										OFFSET 0.000000 0.000000 0.000000
									}
								}
							}
						}
					}
				}
			}
		}
	}
	JOINT RightUpLeg
	{
		OFFSET -11.289943 0.000000 0.000000
		CHANNELS 3 Zrotation Yrotation Xrotation
		JOINT RightLeg
		{
			OFFSET 0.000000 -38.200325 0.000000
			CHANNELS 3 Zrotation Yrotation Xrotation
			JOINT RightFoot
			{
				OFFSET -0.000000 -39.900856 -0.000000
				CHANNELS 3 Zrotation Yrotation Xrotation
				JOINT RightToeBase
				{
					OFFSET 0.000000 0.000000 15.261641
					CHANNELS 3 Zrotation Yrotation Xrotation
					JOINT RightToeBaseEnd
					{
						OFFSET 0.000000 0.000000 7.370709
						CHANNELS 3 Zrotation Yrotation Xrotation
						End Site
						{
							OFFSET 0.000000 0.000000 0.000000
						}
					}
				}
				JOINT RightLegEnd
				{
					OFFSET 0.000000 0.000000 0.000000
					CHANNELS 3 Zrotation Yrotation Xrotation
					End Site
					{
						OFFSET 0.000000 0.000000 0.000000
					}
				}
			}
			JOINT RightUpLegEnd
			{
				OFFSET 0.000000 0.000000 0.000000
				CHANNELS 3 Zrotation Yrotation Xrotation
				End Site
				{
					OFFSET 0.000000 0.000000 0.000000
				}
			}
		}
	}
	JOINT LeftUpLeg
	{
		OFFSET 11.315661 -0.000000 0.000000
		CHANNELS 3 Zrotation Yrotation Xrotation
		JOINT LeftLeg
		{
			OFFSET -0.000000 -38.200325 -0.000000
			CHANNELS 3 Zrotation Yrotation Xrotation
			JOINT LeftFoot
			{
				OFFSET 0.000000 -39.900856 -0.000000
				CHANNELS 3 Zrotation Yrotation Xrotation
				JOINT LeftToeBase
				{
					OFFSET -0.000000 -0.000000 15.261641
					CHANNELS 3 Zrotation Yrotation Xrotation
					JOINT LeftToeBaseEnd
					{
						OFFSET 0.000000 -0.000000 7.539996
						CHANNELS 3 Zrotation Yrotation Xrotation
						End Site
						{
							OFFSET 0.000000 0.000000 0.000000
						}
					}
				}
				JOINT LeftLegEnd
				{
					OFFSET 0.000000 0.000000 0.000000
					CHANNELS 3 Zrotation Yrotation Xrotation
					End Site
					{
						OFFSET 0.000000 0.000000 0.000000
					}
				}
			}
			JOINT LeftUpLegEnd
			{
				OFFSET 0.000000 0.000000 0.000000
				CHANNELS 3 Zrotation Yrotation Xrotation
				End Site
				{
					OFFSET 0.000000 0.000000 0.000000
				}
			}
		}
	}
}
MOTION
Frames: 4
Frame Time: 0.016667
0.381523 88.797028 2.910793 -0.313677 -0.919389 -9.434280 1.114027 0.033110 6.865911 -0.791408 0.285302 2.854234 0.592859 -0.923921 3.399242 -0.941368 0.196234 4.259083 1.412222 0.592907 4.558100 0.443290 1.284157 -3.278551 -0.500484 -0.855789 -19.526327 0.000000 0.000000 0.000000 92.695320 -0.109172 9.749090 66.911308 -25.169052 3.699693 0.242901 17.603914 25.031635 3.512466 12.775351 -5.682821 19.351425 30.291204 62.577751 -7.869228 -11.256344 -19.039560 -5.864176 -7.391148 -13.140520 0.000000 0.000000 0.000000 9.192398 -10.627651 2.410620 8.806228 0.430801 1.068725 8.609553 -0.006192 1.057640 0.000000 0.000000 0.000000 8.448477 -4.983110 0.864493 7.449729 0.471153 0.396314 7.890657 -0.018197 0.350207 0.000000 0.000000 0.000000 8.933825 2.978629 0.154233 7.725287 -0.938036 -0.661590 7.639919 0.027122 -0.468516 0.000000 0.000000 0.000000 7.881986 11.558811 -1.521934 7.090475 -1.790329 -2.055665 6.977101 0.156507 -1.683191 0.000000 0.000000 0.000000 0.000000 0.000000 0.000000 0.000000 0.000000 0.000000 -89.851952 0.070793 5.529916 -70.998642 17.002632 -5.695765 -0.305089 -12.133311 49.532673 4.557688 -13.759491 -12.623056 -17.859688 -30.747154 63.952381 6.397067 8.224905 -14.487973 4.580822 5.547776 -10.256765 0.000000 0.000000 0.000000 -2.054247 -8.602451 8.432774 -3.202789 0.454066 -0.788864 -3.157150 -0.009389 -0.786658 0.000000 0.000000 0.000000 -2.458302 -3.214336 4.737493 -3.147066 0.463640 -0.360689 -3.362821 -0.022131 -0.287640 0.000000 0.000000 0.000000 -5.832149 5.340435 0.839640 -5.107957 -0.961653 0.644111 -5.155946 0.018154 0.512536 0.000000 0.000000 0.000000 -9.217949 14.726348 -3.983524 -7.110757 -1.807642 2.321253 -6.732296 0.203995 2.021186 0.000000 0.000000 0.000000 0.000000 0.000000 0.000000 0.000000 0.000000 0.000000 -0.317630 -9.156325 13.487637 -0.070203 -0.666848 5.044861 -2.943089 -7.945833 17.951033 -0.782874 0.788662 -18.817232 0.000000 0.000000 0.000000 0.000000 0.000000 0.000000 0.000000 0.000000 0.000000 -1.350893 -6.093451 8.252110 0.065775 0.288027 10.034204 3.855996 -0.384061 16.989786 0.322912 -0.414926 -20.711308 0.000000 0.000000 0.000000 0.000000 0.000000 0.000000 0.000000 0.000000 0.000000 
0.384160 88.788612 2.906569 -0.285739 -0.923312 -9.475991 1.079979 0.037454 6.888749 -0.762323 0.285914 2.891776 0.540010 -0.894914 3.398475 -0.938821 0.194203 4.282804 1.483130 0.543707 4.650947 0.463374 1.262142 -3.230312 -0.488845 -0.867246 -19.528332 0.000000 0.000000 0.000000 92.791183 -0.121312 9.771877 66.766869 -25.273218 3.824420 0.263072 17.606651 24.941719 3.449636 12.851994 -5.719668 19.287144 30.314516 62.646519 -7.796317 -11.123909 -18.837069 -5.806047 -7.307701 -12.999771 0.000000 0.000000 0.000000 8.767337 -10.559421 2.411768 8.554704 0.440849 1.032180 8.350122 0.004182 1.026836 0.000000 0.000000 0.000000 8.068071 -4.915345 0.845770 7.204831 0.474912 0.382572 7.644439 -0.014868 0.339570 0.000000 0.000000 0.000000 8.654576 3.026549 0.116693 7.514303 -0.943187 -0.644189 7.418673 0.022966 -0.455502 0.000000 0.000000 0.000000 7.683501 11.578668 -1.601842 6.928586 -1.806265 -2.006403 6.811925 0.141429 -1.642584 0.000000 0.000000 0.000000 0.000000 0.000000 0.000000 0.000000 0.000000 0.000000 -89.923302 0.074967 5.512266 -70.988785 16.812908 -5.663118 -0.337041 -12.196419 49.542225 4.841631 -13.680070 -12.636658 -17.691797 -30.807177 64.133949 6.200485 7.894670 -13.950520 4.424549 5.325259 -9.886844 0.000000 0.000000 0.000000 -0.808280 -8.838690 8.763515 -2.794618 0.459345 -0.774956 -2.757948 -0.003623 -0.774053 0.000000 0.000000 0.000000 -1.290306 -3.429444 4.965587 -2.739092 0.465589 -0.353598 -2.957711 -0.020148 -0.282592 0.000000 0.000000 0.000000 -4.679737 5.146468 0.894957 -4.664873 -0.964541 0.633226 -4.707532 0.015211 0.505582 0.000000 0.000000 0.000000 -8.193384 14.589306 -4.083293 -6.711882 -1.817569 2.288769 -6.331225 0.193686 1.998032 0.000000 0.000000 0.000000 0.000000 0.000000 0.000000 0.000000 0.000000 0.000000 -0.343954 -9.171359 13.525573 -0.070744 -0.667857 5.046173 -2.961767 -7.901057 17.888224 -0.781938 0.792105 -18.784748 0.000000 0.000000 0.000000 0.000000 0.000000 0.000000 0.000000 0.000000 0.000000 -1.366395 -6.078606 8.274826 0.065432 0.287700 10.049983 3.849814 -0.395791 16.976135 0.318354 -0.414769 -20.720879 0.000000 0.000000 0.000000 0.000000 0.000000 0.000000 0.000000 0.000000 0.000000 
0.387713 88.781296 2.905112 -0.258169 -0.936232 -9.514499 1.047840 0.041674 6.911885 -0.736075 0.285644 2.923416 0.489887 -0.877034 3.398116 -0.934152 0.187045 4.302539 1.556064 0.501284 4.717382 0.483005 1.245641 -3.192629 -0.482571 -0.878923 -19.513712 0.000000 0.000000 0.000000 92.893814 -0.139632 9.794380 66.614548 -25.410124 3.951286 0.281556 17.591934 24.837234 3.456722 12.941740 -5.735810 19.234043 30.333214 62.703526 -7.737812 -11.011066 -18.668587 -5.758264 -7.237419 -12.882615 0.000000 0.000000 0.000000 8.459984 -10.504354 2.359535 8.350393 0.449930 0.995224 8.138462 0.013642 0.995524 0.000000 0.000000 0.000000 7.797262 -4.864043 0.790076 7.006670 0.478333 0.368880 7.445915 -0.011860 0.328785 0.000000 0.000000 0.000000 8.468497 3.057554 0.067969 7.348389 -0.947860 -0.626601 7.245462 0.019153 -0.442050 0.000000 0.000000 0.000000 7.559199 11.583615 -1.671919 6.805897 -1.820242 -1.956121 6.684995 0.127763 -1.601852 0.000000 0.000000 0.000000 0.000000 0.000000 0.000000 0.000000 0.000000 0.000000 -89.988503 0.078527 5.499171 -71.016586 16.609478 -5.669737 -0.374755 -12.260487 49.561161 5.052112 -13.690702 -12.667909 -17.554485 -30.857775 64.284737 6.035002 7.624944 -13.505622 4.294333 5.143514 -9.580647 0.000000 0.000000 0.000000 0.209814 -9.032495 8.992133 -2.501648 0.463785 -0.761107 -2.472921 0.001456 -0.760840 0.000000 0.000000 0.000000 -0.334989 -3.606194 5.121019 -2.446360 0.467218 -0.346713 -2.664851 -0.018465 -0.277429 0.000000 0.000000 0.000000 -3.734841 4.987055 0.915838 -4.339859 -0.966995 0.622113 -4.377484 0.012646 0.498409 0.000000 0.000000 0.000000 -7.360341 14.476363 -4.180239 -6.417922 -1.825933 2.254777 -6.037537 0.184827 1.973577 0.000000 0.000000 0.000000 0.000000 0.000000 0.000000 0.000000 0.000000 0.000000 -0.367074 -9.187081 13.559473 -0.071262 -0.669146 5.046973 -2.980535 -7.861622 17.823824 -0.782247 0.796086 -18.749281 0.000000 0.000000 0.000000 0.000000 0.000000 0.000000 0.000000 0.000000 0.000000 -1.379483 -6.061965 8.296757 0.064951 0.287334 10.061180 3.841665 -0.407005 16.960209 0.314196 -0.414597 -20.727150 0.000000 0.000000 0.000000 0.000000 0.000000 0.000000 0.000000 0.000000 0.000000 
0.392251 88.775894 2.907162 -0.231985 -0.955246 -9.548809 1.019370 0.045950 6.935314 -0.711825 0.284375 2.945977 0.439715 -0.864642 3.397728 -0.928404 0.176476 4.316316 1.622635 0.468467 4.761068 0.501485 1.233619 -3.164284 -0.481676 -0.891227 -19.484303 0.000000 0.000000 0.000000 92.996773 -0.161307 9.816182 66.468452 -25.582037 4.062734 0.296635 17.564560 24.715044 3.527128 13.014783 -5.743281 19.198357 30.345415 62.742374 -7.699898 -10.930987 -18.553078 -5.726144 -7.188825 -12.802270 0.000000 0.000000 0.000000 8.297275 -10.467134 2.254552 8.213260 0.457322 0.961415 7.996045 0.021424 0.966747 0.000000 0.000000 0.000000 7.660583 -4.833859 0.700899 6.875231 0.481237 0.356510 7.315064 -0.009378 0.318858 0.000000 0.000000 0.000000 8.394583 3.068162 0.013825 7.246274 -0.951795 -0.610494 7.139373 0.015890 -0.429358 0.000000 0.000000 0.000000 7.527634 11.572196 -1.718796 6.738517 -1.831326 -1.909355 6.613742 0.116308 -1.564636 0.000000 0.000000 0.000000 0.000000 0.000000 0.000000 0.000000 0.000000 0.000000 -90.043434 0.081785 5.489992 -71.072662 16.438265 -5.719799 -0.414202 -12.311953 49.583725 5.189822 -13.754059 -12.729207 -17.452354 -30.896212 64.397484 5.910102 7.425682 -13.172932 4.196866 5.009290 -9.351754 0.000000 0.000000 0.000000 0.960775 -9.173626 9.122574 -2.303456 0.467376 -0.748194 -2.280417 0.005788 -0.747930 0.000000 0.000000 0.000000 0.370957 -3.736999 5.208919 -2.248249 0.468544 -0.340356 -2.463687 -0.017080 -0.272443 0.000000 0.000000 0.000000 -3.035908 4.867403 0.914100 -4.115583 -0.969130 0.611432 -4.148088 0.010393 0.491394 0.000000 0.000000 0.000000 -6.748263 14.389268 -4.256204 -6.212818 -1.833034 2.221431 -5.835193 0.177213 1.949466 0.000000 0.000000 0.000000 0.000000 0.000000 0.000000 0.000000 0.000000 0.000000 -0.387576 -9.200896 13.592430 -0.071698 -0.670419 5.042449 -2.997504 -7.827028 17.763895 -0.783431 0.799886 -18.712427 0.000000 0.000000 0.000000 0.000000 0.000000 0.000000 0.000000 0.000000 0.000000 -1.391215 -6.045993 8.317896 0.064363 0.287254 10.064556 3.832333 -0.414124 16.946320 0.310995 -0.414629 -20.732006 0.000000 0.000000 0.000000 0.000000 0.000000 0.000000 0.000000 0.000000 0.000000 
